<?xml version="1.0"?>
<svg xmlns="http://www.w3.org/2000/svg" xmlns:xlink="http://www.w3.org/1999/xlink" version="1.1" id="Layer_1" x="0px" y="0px" viewBox="0 0 462.562 462.562" style="enable-background:new 0 0 462.562 462.562;" xml:space="preserve" width="512px" height="512px" class=""><g><g transform="translate(0 -540.36)">
	<g>
		<g>
			<path d="M414.079,560.122c-13.9-13.5-32.5-20.5-52.5-19.7c-19.6,0.8-38.3,9-52.7,23.1l-203.5,198.8l-51.5,50.3     c-0.6,0.6-1.2,1.2-1.7,1.8c-0.6,0.5-1.2,1.1-1.8,1.7c-13.9,13.6-21.6,31.3-21.6,49.9c0,18.6,7.7,36.3,21.6,49.9     c11,10.7,25,17.4,40.3,19.5v13.7c0,12.6,10.5,22.9,23.4,22.9c3.5,0,5.8-1.1,8.2-1.1v9.1c0,12.6,10.5,22.9,23.4,22.9     c12.9,0,23.4-10.3,23.4-22.9v-81.7l240.3-234.7c15.3-14.4,24.2-34.3,24.4-54.6C433.979,590.022,426.979,572.722,414.079,560.122z      M311.979,581.522l-40.1,150l-138.6,24.6L311.979,581.522z M145.679,986.822c-4.7,0-8.2-2.3-8.2-6.9v-30.8c0-3.4-2.3-6.9-7-8     c-4.7,0-8.2,3.4-8.2,8s-3.5,8-8.2,8c-3.5,0-7-3.4-7-8v-13.3c16.7-1.4,32.1-8.3,43.8-19.8c0.8-0.7,1.5-1.5,2.2-2.3     c0.2-0.2,0.5-0.5,0.7-0.7v28.1v38.8h0.1C153.879,984.522,150.379,986.822,145.679,986.822z M142.579,902.922     c-24.5,21.7-60.6,23-81.8,2.3c-10.2-9.9-15.8-23.3-15.8-37.7c0-15.3,6.4-30.5,17.5-42.3c10.6-9.5,24.3-14.2,38.1-14.2     c14.5,0,29,5.3,39.8,15.8c11,10.7,17,24.7,17,39.2C157.479,879.522,152.179,892.522,142.579,902.922z M398.979,652.522l-0.1,0.1     l-227,221.7c0.4-2.8,0.6-5.6,0.6-8.4c0-18.6-7.7-36.3-21.6-49.9c-13.3-13-31.1-20.1-50.3-20.1c-2.9,0-5.9,0.2-8.7,0.5l22.3-21.7     l165-29.3c2.9-0.5,5.2-2.6,5.9-5.4l46.8-174.8c0.1-0.2,0.1-0.4,0.1-0.6c10.2-6,21.6-9.1,32.7-9.1c14.4,0,28.4,5.1,38.9,15.4     c10,9.7,15.4,23.2,15.2,37.8C418.579,625.022,411.379,641.022,398.979,652.522z" data-original="#000000" class="active-path" data-old_color="#ffffff" fill="#ffffff"/>
			<path d="M100.579,822.022c-24.3,0-44,19.7-44,44s19.7,44,44,44c24.3,0,44-19.7,44-44S124.879,822.022,100.579,822.022z      M82.579,888.722c-6.7-5.3-11-13.5-11-22.7c0-16,13-29,29-29c9.2,0,17.5,4.4,22.8,11.1c-2.1,3.2-5.4,7.9-7.4,10     c-1.7,1.1-4.5,2-7.3,2.9c-5,1.6-10.7,3.3-15.2,7.7C88.479,873.522,84.679,882.822,82.579,888.722z M129.479,866.122     c0.1,15.9-12.9,28.9-28.9,28.9c-1.4,0-2.8-0.1-4.2-0.3c1.9-5.6,5-12.8,7.5-15.2c1.9-1.8,5.4-2.9,9.2-4.1     c4.3-1.3,8.7-2.7,12.4-5.6l0.6-0.5c1.1-1,2.2-2.4,3.4-3.9C129.479,865.622,129.479,865.922,129.479,866.122z" data-original="#000000" class="active-path" data-old_color="#ffffff" fill="#ffffff"/>
		</g>
	</g>
</g></g> </svg>
